Coordinates
version=1
nRows=16
nColumns=40
inDegrees=yes

Units are S.I. units (second, meters, Newtons, ...)
Angles are in degrees.

endheader
time	pelvis_tilt	pelvis_list	pelvis_rotation	pelvis_tx	pelvis_ty	pelvis_tz	hip_flexion_r	hip_adduction_r	hip_rotation_r	knee_angle_r	knee_angle_r_beta	ankle_angle_r	subtalar_angle_r	mtp_angle_r	hip_flexion_l	hip_adduction_l	hip_rotation_l	knee_angle_l	knee_angle_l_beta	ankle_angle_l	subtalar_angle_l	mtp_angle_l	lumbar_extension	lumbar_bending	lumbar_rotation	arm_flex_r	arm_add_r	arm_rot_r	elbow_flex_r	pro_sup_r	wrist_flex_r	wrist_dev_r	arm_flex_l	arm_add_l	arm_rot_l	elbow_flex_l	pro_sup_l	wrist_flex_l	wrist_dev_l
     33.25250000	     -1.92314902	     -3.17796076	     -2.01280614	      0.86819473	      0.91406835	      0.38480154	     19.67153597	     -9.17270777	     -2.20205833	     61.03316731	     61.03316731	      4.82049728	    -16.56769416	     -1.79306109	     16.44124420	     -0.07925175	     -3.86470640	     33.08016608	     33.08016608	     21.14380941	    -16.69914335	      7.16868714	     -9.27649066	      5.60682460	      2.72201102	      9.07022294	    -13.22163232	     -7.67697299	     31.52752162	     46.34012925	      0.00000000	      0.00000000	     19.86390406	    -12.84810082	     11.86546059	     35.71224216	     45.93140424	      0.00000000	      0.00000000
     33.27585714	     -1.80305696	     -3.29480735	     -2.48237815	      0.86752410	      0.91480873	      0.38382483	     20.85246903	     -8.86793883	     -1.97033320	     60.50334122	     60.50334122	      5.71532217	    -16.54436203	     -0.96864205	     15.73566031	     -0.19368440	     -4.32513629	     32.63870600	     32.63870600	     21.29007513	    -16.57123326	      7.06666449	     -9.38447505	      5.77344835	      2.57712022	      6.41651489	    -13.08092151	     -7.61213424	     30.04421189	     46.37333505	      0.00000000	      0.00000000	     21.46674773	    -13.32622024	     10.95979116	     37.06690663	     46.06346383	      0.00000000	      0.00000000
     33.29921429	     -1.73975951	     -3.49787602	     -2.97503508	      0.86680752	      0.91601335	      0.38337934	     21.84309026	     -8.41147004	     -1.82974538	     59.10451932	     59.10451932	      6.68861480	    -16.30185475	     -0.61260453	     14.96520633	     -0.42563448	     -4.78135685	     31.97073215	     31.97073215	     21.35448260	    -16.39466693	      6.92254460	     -9.39717650	      6.02568803	      2.45643316	      3.80006062	    -12.89925487	     -7.52681505	     28.78191147	     46.39613232	      0.00000000	      0.00000000	     22.91762113	    -13.83614816	      9.76229091	     38.67274949	     46.22247266	      0.00000000	      0.00000000
     33.32257143	     -1.72751848	     -3.74323833	     -3.48654560	      0.86599615	      0.91772243	      0.38350126	     22.65238806	     -7.87972404	     -1.80902175	     56.88630522	     56.88630522	      7.56611145	    -15.78618329	     -0.76599290	     14.10427988	     -0.73421603	     -5.30234932	     31.02243618	     31.02243618	     21.30024301	    -16.14701765	      6.82807712	     -9.38565388	      6.27279628	      2.35337872	      1.25091562	    -12.69494791	     -7.42815113	     27.75927345	     46.40861269	      0.00000000	      0.00000000	     24.22466678	    -14.33204420	      8.50237186	     40.37701070	     46.38264934	      0.00000000	      0.00000000
     33.34592857	     -1.86148026	     -4.00803066	     -4.02043062	      0.86510858	      0.91959521	      0.38410214	     23.31843555	     -7.29512878	     -1.87704457	     53.80601721	     53.80601721	      7.75447841	    -15.26192424	     -2.70838851	     13.28919283	     -1.09594836	     -5.86403809	     29.83631816	     29.83631816	     20.74942760	    -15.96252162	      5.72456629	     -9.29477592	      6.53916380	      1.58841293	     -1.02473444	    -12.42268403	     -7.05853313	     27.63480137	     46.36233418	      0.00000000	      0.00000000	     24.18421138	    -14.78554301	      3.56290866	     44.32927651	     46.89251266	      0.00000000	      0.00000000
     33.36928571	     -1.94874502	     -4.23987928	     -4.58536933	      0.86420332	      0.92186017	      0.38518319	     23.71962704	     -6.71915192	     -1.99331223	     50.17771723	     50.17771723	      8.31343420	    -14.01308003	     -3.18106726	     12.33033796	     -1.42836092	     -6.48048485	     28.51350933	     28.51350933	     20.56858708	    -15.55060382	      5.80367669	     -9.21639617	      6.72562506	      1.71202166	     -3.37515123	    -12.19826650	     -6.78905455	     26.74651996	     46.35857698	      0.00000000	      0.00000000	     25.50292996	    -15.19160198	      2.60581562	     45.83200068	     47.00127601	      0.00000000	      0.00000000
     33.39264286	     -2.11306880	     -4.51408448	     -5.14856318	      0.86337293	      0.92403649	      0.38671199	     23.87377716	     -6.09524967	     -2.28374579	     45.89366095	     45.89366095	      8.11654967	    -12.63373789	     -5.23449667	     11.37618348	     -1.83432624	     -7.15371088	     27.05144340	     27.05144340	     20.02515338	    -15.17527190	      4.97264317	     -9.08012287	      6.93666878	      1.35372931	     -5.70748131	    -12.02266256	     -6.17306981	     27.18808036	     46.27054107	      0.00000000	      0.00000000	     25.69424990	    -15.65894847	     -0.36010106	     49.47555223	     47.27221568	      0.00000000	      0.00000000
     33.41600000	     -2.23667573	     -4.67728424	     -5.73707694	      0.86266677	      0.92623559	      0.38860821	     23.80777401	     -5.57663550	     -2.63782434	     41.38985017	     41.38985017	      8.26221157	    -10.42314799	     -5.49360706	     10.29081642	     -2.11122411	     -7.90060388	     25.45523196	     25.45523196	     19.71161259	    -14.59994441	      4.83594565	     -8.92473403	      7.00019584	      1.49496629	     -7.84134501	    -11.78534315	     -5.75937590	     26.83223262	     46.23563385	      0.00000000	      0.00000000	     26.67237505	    -16.03752993	     -1.41441673	     51.53618511	     47.37718786	      0.00000000	      0.00000000
     33.43935714	     -2.54406658	     -4.94910387	     -6.26426223	      0.86199830	      0.92798157	      0.39091005	     23.67773650	     -4.80713220	     -2.97865489	     36.65425203	     36.65425203	      8.15418569	     -8.35090326	     -4.98755429	      9.50071978	     -2.52489956	     -8.47943784	     24.07296143	     24.07296143	     19.50616429	    -14.11767441	      4.94723754	     -8.48815195	      7.23164686	      1.37887701	     -9.62006834	    -11.44517265	     -5.64378060	     26.46832185	     46.22541593	      0.00000000	      0.00000000	     27.63415706	    -16.61398507	     -1.92906981	     52.78009436	     47.44010784	      0.00000000	      0.00000000
     33.46271429	     -2.46041557	     -4.98703010	     -6.81989180	      0.86182872	      0.92973376	      0.39334344	     23.02808046	     -4.51611967	     -3.81499292	     32.08128082	     32.08128082	      8.13205130	     -4.77303190	     -4.42670955	      8.13689473	     -2.65667299	     -9.39536285	     22.41668094	     22.41668094	     18.78116264	    -13.51452358	      3.44217460	     -8.65392221	      7.11372497	      1.18284049	    -11.74309893	    -11.38980119	     -5.06387276	     28.09601211	     46.09146651	      0.00000000	      0.00000000	     27.29694151	    -17.11046710	     -4.45631555	     57.82964392	     47.67248646	      0.00000000	      0.00000000
     33.48607143	     -2.47111247	     -4.97918744	     -7.34203794	      0.86185990	      0.93099353	      0.39612830	     22.38927982	     -4.12612038	     -4.50564241	     27.75224378	     27.75224378	      7.87485843	     -1.57475676	     -3.32766822	      6.93246656	     -2.73021406	    -10.19417692	     20.91141572	     20.91141572	     18.51521766	    -12.80947527	      3.09181253	     -8.52430725	      6.95539163	      1.43173430	    -13.33289101	    -11.08582901	     -4.63939552	     28.00622739	     46.05077988	      0.00000000	      0.00000000	     28.16791312	    -17.33554809	     -5.18210212	     59.85739210	     47.75212806	      0.00000000	      0.00000000
     33.50942857	     -2.50810397	     -4.91151467	     -7.82485474	      0.86220073	      0.93168191	      0.39908629	     21.84744939	     -3.82799915	     -5.39344169	     24.06815001	     24.06815001	      7.73374112	      1.90155813	     -1.47265191	      5.81852599	     -2.74069439	    -10.97024865	     19.53357766	     19.53357766	     18.13334284	    -12.17153306	      2.13323649	     -8.33987791	      6.76906932	      1.43669699	    -14.85592863	    -10.92872526	     -4.18332196	     28.63962958	     45.97884835	      0.00000000	      0.00000000	     28.43471284	    -17.68014040	     -6.27724663	     62.80881034	     47.86157414	      0.00000000	      0.00000000
     33.53278571	     -2.49876644	     -4.84168772	     -8.24829821	      0.86291852	      0.93199325	      0.40228336	     21.29383555	     -3.49223854	     -6.16911409	     21.04595081	     21.04595081	      7.68053243	      4.93534192	      0.87727506	      4.70908042	     -2.73778535	    -11.63905112	     18.28868974	     18.28868974	     17.68204824	    -11.72794235	      0.91437767	     -8.13928390	      6.56613169	      1.30247304	    -16.07494754	    -10.84955011	     -3.53870461	     29.39402555	     45.89523756	      0.00000000	      0.00000000	     28.54762354	    -18.02998997	     -7.44515749	     65.74661052	     47.96799069	      0.00000000	      0.00000000
     33.55614286	     -2.53636914	     -4.73198816	     -8.61322739	      0.86391842	      0.93196943	      0.40570472	     20.76832724	     -3.08759298	     -6.47225138	     18.48770580	     18.48770580	      7.09964794	      6.79585384	      1.83191718	      3.74500826	     -2.69400239	    -12.14486621	     17.26385504	     17.26385504	     17.69771164	    -11.26555013	      0.73395614	     -7.76969405	      6.37045261	      1.50434658	    -16.96185223	    -10.62450675	     -3.35918600	     29.25937639	     45.88160606	      0.00000000	      0.00000000	     29.23779604	    -18.06043550	     -7.74597580	     67.00094664	     48.01063176	      0.00000000	      0.00000000
     33.57950000	     -2.40037265	     -4.57422467	     -8.96121136	      0.86540449	      0.93176911	      0.40919283	     20.32000200	     -2.95142375	     -7.28369753	     17.05072101	     17.05072101	      7.08561622	      9.34626964	      3.27321695	      2.50915788	     -2.56780389	    -12.78931043	     16.09517518	     16.09517518	     17.23568183	    -10.74679833	     -0.85986183	     -7.69735649	      6.12078837	      1.29619732	    -17.75382398	    -10.74803188	     -2.75233491	     30.16190423	     45.80424335	      0.00000000	      0.00000000	     28.94529795	    -18.35623412	     -9.18177921	     70.47686477	     48.13809329	      0.00000000	      0.00000000
     33.60285714	     -2.35315394	     -4.43957646	     -9.23416289	      0.86718924	      0.93139685	      0.41288748	     19.91150015	     -2.68275372	     -7.42327230	     15.99107349	     15.99107349	      6.68693662	     10.45956079	      3.48767697	      1.45498304	     -2.47766248	    -13.21380240	     15.14654803	     15.14654803	     17.29853090	    -10.26080115	     -1.01565891	     -7.39463861	      5.96315254	      1.57550648	    -18.33755918	    -10.70116014	     -2.56730429	     30.00557705	     45.79568064	      0.00000000	      0.00000000	     29.49714356	    -18.17849987	     -9.46182373	     71.68564184	     48.17618328	      0.00000000	      0.00000000
